<svg xmlns="http://www.w3.org/2000/svg" width="238.111" height="332.599"><g transform="translate(-775.747 32.475) scale(1.06667)"><rect ry="10.664" rx="10.678" style="display:inline;fill:#fff;fill-opacity:1;stroke:none;stroke-width:1.00057;stroke-miterlimit:4;stroke-dasharray:none;stroke-opacity:1" width="223.228" height="311.811" x="727.26" y="-30.445"/><path d="M838.875 50.25c-5.187-8.565-10.643-16.89-17.461-24 6.818-7.11 12.274-15.435 17.46-24 5.187 8.565 10.643 16.89 17.462 24-6.819 7.11-12.275 15.435-17.461 24zM744.478 39.528c-2.161-3.568-4.435-7.037-7.276-10 2.841-2.962 5.115-6.43 7.276-10 2.16 3.57 4.434 7.038 7.275 10-2.84 2.963-5.114 6.432-7.275 10zM933.272 231.393c-2.16-3.569-4.434-7.037-7.275-10 2.84-2.963 5.114-6.431 7.275-10 2.161 3.569 4.435 7.037 7.276 10-2.841 2.963-5.115 6.431-7.276 10zM838.875 248.671c-5.187-8.565-10.643-16.889-17.461-24 6.818-7.11 12.274-15.435 17.46-24 5.187 8.565 10.643 16.89 17.462 24-6.819 7.111-12.275 15.435-17.461 24z" style="display:inline;opacity:1;fill:#c8102e;fill-opacity:1"/><path d="m735.084 16.322.161-2.035c.508-6.288 1.86-8.41 9.523-14.974 3.72-3.182 4.941-4.752 5.112-6.574.487-4.296-3.314-5.637-5.79-5.657-3.21-.029-6.84 1.924-5.107 6.462l-3.602 1.078c-.723-4.234.021-8.205 3.39-9.968 4.5-2.298 10.27-1.397 13.184 2.224 1.958 2.429 2.406 5.79 1.355 8.421-3.069 6.72-13.479 9.677-14.338 17.453h11.506V8.423h3.39v7.97l-18.784-.071zM942.663 234.6l-.161 2.034c-.508 6.288-1.86 8.41-9.523 14.974-3.72 3.182-4.941 4.753-5.112 6.574-.487 4.297 3.315 5.638 5.79 5.657 3.21.03 6.84-1.923 5.108-6.462l3.6-1.078c.725 4.234-.02 8.206-3.39 9.968-4.5 2.298-10.27 1.397-13.183-2.223-1.958-2.43-2.406-5.791-1.355-8.422 3.069-6.72 13.479-9.677 14.338-17.453h-11.506v4.33h-3.39v-7.97l18.784.07zm0 0" style="opacity:1;fill:#c8102e;fill-opacity:1"/></g><g transform="translate(-385.248 110.221)"><rect style="opacity:1;vector-effect:none;fill:#006614;fill-opacity:1;stroke:none;stroke-width:1.74801;stroke-linecap:butt;stroke-linejoin:miter;stroke-miterlimit:4;stroke-dasharray:none;stroke-dashoffset:0;stroke-opacity:1" width="1659.913" height="794.398" x="-356.473" y="-1029.682" rx="144.482" ry="124.682"/><text y="-935.813" x="472.194" style="font-style:normal;font-variant:normal;font-weight:400;font-stretch:normal;font-size:42.6667px;line-height:125%;font-family:Carlito;-inkscape-font-specification:'Carlito, Normal';text-align:center;letter-spacing:0;word-spacing:0;writing-mode:lr-tb;text-anchor:middle;fill:#fff;fill-opacity:1;stroke:none;stroke-width:1.06667px;stroke-linecap:butt;stroke-linejoin:miter;stroke-opacity:1" xml:space="preserve"><tspan style="font-style:normal;font-variant:normal;font-weight:400;font-stretch:normal;font-size:48px;line-height:125%;font-family:Carlito;-inkscape-font-specification:'Carlito, Normal';text-align:center;writing-mode:lr-tb;text-anchor:middle;fill:#fff;fill-opacity:1;stroke-width:1.06667px" y="-935.813" x="472.194">Single Playing Card from:</tspan><tspan style="font-style:normal;font-variant:normal;font-weight:400;font-stretch:normal;font-size:48px;line-height:125%;font-family:Carlito;-inkscape-font-specification:'Carlito, Normal';text-align:center;writing-mode:lr-tb;text-anchor:middle;fill:#fff;fill-opacity:1;stroke-width:1.06667px" y="-875.813" x="472.194">Standard Edition - Color Set - Bordered </tspan><tspan style="font-style:normal;font-variant:normal;font-weight:400;font-stretch:normal;font-size:48px;line-height:125%;font-family:Carlito;-inkscape-font-specification:'Carlito, Normal';text-align:center;writing-mode:lr-tb;text-anchor:middle;fill:#faa;fill-opacity:1;stroke-width:1.06667px" y="-762.48" x="472.194">Copyright 2011, 2020 - Chris Aguilar - conjurenation@gmail.com</tspan><tspan style="font-style:normal;font-variant:normal;font-weight:400;font-stretch:normal;font-size:48px;line-height:125%;font-family:Carlito;-inkscape-font-specification:'Carlito, Normal';text-align:center;writing-mode:lr-tb;text-anchor:middle;fill:#fff;fill-opacity:1;stroke-width:1.06667px" y="-649.147" x="472.194">https://totalnonsense.com/open-source-vector-playing-cards/</tspan><tspan style="font-style:normal;font-variant:normal;font-weight:400;font-stretch:normal;font-size:48px;line-height:125%;font-family:Carlito;-inkscape-font-specification:'Carlito, Normal';text-align:center;writing-mode:lr-tb;text-anchor:middle;fill:#faa;fill-opacity:1;stroke-width:1.06667px" y="-535.813" x="472.194">Licensed under:</tspan><tspan style="font-style:normal;font-variant:normal;font-weight:400;font-stretch:normal;font-size:48px;line-height:125%;font-family:Carlito;-inkscape-font-specification:'Carlito, Normal';text-align:center;writing-mode:lr-tb;text-anchor:middle;fill:#faa;fill-opacity:1;stroke-width:1.06667px" y="-475.813" x="472.194">LGPL 3.0</tspan><tspan style="font-style:normal;font-variant:normal;font-weight:400;font-stretch:normal;font-size:48px;line-height:125%;font-family:Carlito;-inkscape-font-specification:'Carlito, Normal';text-align:center;writing-mode:lr-tb;text-anchor:middle;fill:#faa;fill-opacity:1;stroke-width:1.06667px" y="-415.813" x="472.194">https://www.gnu.org/licenses/lgpl-3.0.html</tspan><tspan style="font-style:normal;font-variant:normal;font-weight:400;font-stretch:normal;font-size:48px;line-height:125%;font-family:Carlito;-inkscape-font-specification:'Carlito, Normal';text-align:center;writing-mode:lr-tb;text-anchor:middle;fill:#fff;fill-opacity:1;stroke-width:1.06667px" y="-302.48" x="472.194">Each Card Measures (63mm x 88mm)</tspan></text></g></svg>