<svg xmlns="http://www.w3.org/2000/svg" width="238.111" height="332.599"><g style="display:inline"><g style="display:inline;opacity:1" transform="translate(-277.796 -394.962) scale(1.06667)"><rect ry="10.664" rx="10.678" style="display:inline;fill:#fff;fill-opacity:1;stroke:none;stroke-width:1.00057;stroke-miterlimit:4;stroke-dasharray:none;stroke-opacity:1" width="223.228" height="311.811" x="260.433" y="370.276"/></g><path transform="translate(120.114 224.106) scale(1.06667)" style="display:inline;opacity:1;fill:#c8102e;fill-opacity:1" d="M-95.397-140.121s-2.225-3.19-5.226-6.94c-2.007-2.51-3.612-5.228-3.762-7.568-.17-2.674 1.45-5.357 4.383-5.487 2.93-.13 4.12 2.062 4.605 3.869.485-1.807 1.674-3.999 4.606-3.869 2.933.13 4.553 2.813 4.382 5.487-.15 2.34-1.754 5.058-3.762 7.568-3.001 3.75-5.226 6.94-5.226 6.94zM93.398 31.743s-2.225 3.19-5.226 6.94c-2.008 2.51-3.613 5.228-3.762 7.568-.171 2.674 1.449 5.357 4.382 5.487 2.931.13 4.121-2.062 4.606-3.869.484 1.807 1.674 3.999 4.605 3.869 2.933-.13 4.553-2.813 4.382-5.487-.149-2.34-1.754-5.058-3.762-7.567-3-3.75-5.225-6.94-5.225-6.94zM-52.766-129.4s-4.667-7.655-10.961-16.656c-4.211-6.023-7.578-12.545-7.89-18.163-.36-6.417 3.038-12.855 9.19-13.167 6.149-.312 8.645 4.948 9.66 9.284 1.017-4.336 3.512-9.596 9.66-9.284 6.153.312 9.551 6.75 9.192 13.167-.313 5.618-3.68 12.14-7.89 18.163-6.295 9-10.961 16.656-10.961 16.656zM50.766-129.4s-4.666-7.655-10.96-16.656c-4.212-6.023-7.578-12.545-7.891-18.163-.36-6.417 3.04-12.855 9.191-13.167 6.149-.312 8.644 4.948 9.66 9.284 1.016-4.336 3.512-9.596 9.66-9.284 6.153.312 9.551 6.75 9.192 13.167-.313 5.618-3.68 12.14-7.89 18.163-6.295 9-10.962 16.656-10.962 16.656zM-1-30.189s-4.666-7.655-10.961-16.656c-4.211-6.023-7.578-12.546-7.89-18.163-.36-6.418 3.039-12.856 9.19-13.168 6.15-.312 8.645 4.948 9.66 9.285 1.017-4.337 3.513-9.597 9.661-9.285 6.152.312 9.55 6.75 9.192 13.168-.313 5.617-3.68 12.14-7.891 18.163C3.666-37.845-1-30.19-1-30.19zM50.766 21.022s-4.666 7.655-10.96 16.656c-4.212 6.023-7.578 12.545-7.891 18.163-.36 6.417 3.04 12.855 9.191 13.167 6.149.312 8.644-4.948 9.66-9.284 1.016 4.336 3.512 9.596 9.66 9.284 6.153-.312 9.551-6.75 9.192-13.167-.313-5.618-3.68-12.14-7.89-18.163-6.295-9-10.962-16.656-10.962-16.656zM-52.766 21.022s-4.667 7.655-10.961 16.656c-4.211 6.023-7.578 12.545-7.89 18.163-.36 6.417 3.038 12.855 9.19 13.167 6.149.312 8.645-4.948 9.66-9.284 1.017 4.336 3.512 9.596 9.66 9.284 6.153-.312 9.551-6.75 9.192-13.167-.313-5.618-3.68-12.14-7.89-18.163-6.295-9-10.961-16.656-10.961-16.656z"/><path d="m1589.585-1025.706 3.235-.03c.617 1.991 1.982 4.016 3.836 4.578 5.238 1.253 8.608-1.729 9.717-5.166 1.346-4.17-.03-10.025-3.636-12.103-2.988-1.724-7.427-.27-9.466 3.416l-2.265-1.412 1.216-13.74h14.8v3.248h-11.994l-.19 5.724c2.582-1.846 6.55-1.826 9.13-.531 4.887 2.374 7.157 7.772 6.208 14.134-1.316 6.327-4.22 9.913-10.767 10.425-7.284.067-9.855-5.034-9.824-8.542zm0 0" style="opacity:1;fill:#c8102e;fill-opacity:1;stroke-width:1;stroke-miterlimit:4;stroke-dasharray:none" transform="translate(-1688.297 1134.942) scale(1.06667)"/><path d="m1799.182-790.483-3.235.03c-.617-1.991-1.982-4.016-3.836-4.577-5.238-1.254-8.608 1.728-9.717 5.166-1.346 4.17.03 10.024 3.636 12.103 2.988 1.723 7.427.27 9.466-3.417l2.265 1.412-1.216 13.74h-14.8v-3.248h11.994l.19-5.724c-2.582 1.846-6.55 1.827-9.13.531-4.887-2.374-7.157-7.772-6.208-14.134 1.316-6.327 4.22-9.913 10.767-10.425 7.284-.067 9.855 5.034 9.824 8.542zm0 0" style="opacity:1;fill:#c8102e;fill-opacity:1" transform="translate(-1688.297 1134.942) scale(1.06667)"/></g><g transform="translate(-318.005 144.847)"><rect style="opacity:1;vector-effect:none;fill:#006614;fill-opacity:1;stroke:none;stroke-width:1.74801;stroke-linecap:butt;stroke-linejoin:miter;stroke-miterlimit:4;stroke-dasharray:none;stroke-dashoffset:0;stroke-opacity:1" width="1659.913" height="794.398" x="-356.473" y="-1029.682" rx="144.482" ry="124.682"/><text y="-935.813" x="472.194" style="font-style:normal;font-variant:normal;font-weight:400;font-stretch:normal;font-size:42.6667px;line-height:125%;font-family:Carlito;-inkscape-font-specification:'Carlito, Normal';text-align:center;letter-spacing:0;word-spacing:0;writing-mode:lr-tb;text-anchor:middle;fill:#fff;fill-opacity:1;stroke:none;stroke-width:1.06667px;stroke-linecap:butt;stroke-linejoin:miter;stroke-opacity:1" xml:space="preserve"><tspan style="font-style:normal;font-variant:normal;font-weight:400;font-stretch:normal;font-size:48px;line-height:125%;font-family:Carlito;-inkscape-font-specification:'Carlito, Normal';text-align:center;writing-mode:lr-tb;text-anchor:middle;fill:#fff;fill-opacity:1;stroke-width:1.06667px" y="-935.813" x="472.194">Single Playing Card from:</tspan><tspan style="font-style:normal;font-variant:normal;font-weight:400;font-stretch:normal;font-size:48px;line-height:125%;font-family:Carlito;-inkscape-font-specification:'Carlito, Normal';text-align:center;writing-mode:lr-tb;text-anchor:middle;fill:#fff;fill-opacity:1;stroke-width:1.06667px" y="-875.813" x="472.194">Standard Edition - Color Set - Bordered </tspan><tspan style="font-style:normal;font-variant:normal;font-weight:400;font-stretch:normal;font-size:48px;line-height:125%;font-family:Carlito;-inkscape-font-specification:'Carlito, Normal';text-align:center;writing-mode:lr-tb;text-anchor:middle;fill:#faa;fill-opacity:1;stroke-width:1.06667px" y="-762.48" x="472.194">Copyright 2011, 2020 - Chris Aguilar - conjurenation@gmail.com</tspan><tspan style="font-style:normal;font-variant:normal;font-weight:400;font-stretch:normal;font-size:48px;line-height:125%;font-family:Carlito;-inkscape-font-specification:'Carlito, Normal';text-align:center;writing-mode:lr-tb;text-anchor:middle;fill:#fff;fill-opacity:1;stroke-width:1.06667px" y="-649.147" x="472.194">https://totalnonsense.com/open-source-vector-playing-cards/</tspan><tspan style="font-style:normal;font-variant:normal;font-weight:400;font-stretch:normal;font-size:48px;line-height:125%;font-family:Carlito;-inkscape-font-specification:'Carlito, Normal';text-align:center;writing-mode:lr-tb;text-anchor:middle;fill:#faa;fill-opacity:1;stroke-width:1.06667px" y="-535.813" x="472.194">Licensed under:</tspan><tspan style="font-style:normal;font-variant:normal;font-weight:400;font-stretch:normal;font-size:48px;line-height:125%;font-family:Carlito;-inkscape-font-specification:'Carlito, Normal';text-align:center;writing-mode:lr-tb;text-anchor:middle;fill:#faa;fill-opacity:1;stroke-width:1.06667px" y="-475.813" x="472.194">LGPL 3.0</tspan><tspan style="font-style:normal;font-variant:normal;font-weight:400;font-stretch:normal;font-size:48px;line-height:125%;font-family:Carlito;-inkscape-font-specification:'Carlito, Normal';text-align:center;writing-mode:lr-tb;text-anchor:middle;fill:#faa;fill-opacity:1;stroke-width:1.06667px" y="-415.813" x="472.194">https://www.gnu.org/licenses/lgpl-3.0.html</tspan><tspan style="font-style:normal;font-variant:normal;font-weight:400;font-stretch:normal;font-size:48px;line-height:125%;font-family:Carlito;-inkscape-font-specification:'Carlito, Normal';text-align:center;writing-mode:lr-tb;text-anchor:middle;fill:#fff;fill-opacity:1;stroke-width:1.06667px" y="-302.48" x="472.194">Each Card Measures (63mm x 88mm)</tspan></text></g></svg>