<svg xmlns="http://www.w3.org/2000/svg" width="238.111" height="332.599"><g transform="translate(-1339.429 32.475) scale(1.06667)"><rect ry="10.664" rx="10.678" style="display:inline;fill:#fff;fill-opacity:1;stroke:none;stroke-width:1.00057;stroke-miterlimit:4;stroke-dasharray:none;stroke-opacity:1" width="223.228" height="311.811" x="1255.711" y="-30.445"/><path style="display:inline;opacity:1;fill:#c8102e;fill-opacity:1" d="M1272.928 39.528c-2.161-3.568-4.435-7.037-7.276-10 2.841-2.962 5.115-6.43 7.276-10 2.16 3.57 4.434 7.038 7.275 10-2.84 2.963-5.114 6.432-7.275 10zM1419.091 50.25c-5.186-8.565-10.642-16.89-17.46-24 6.818-7.11 12.274-15.435 17.46-24 5.186 8.565 10.643 16.89 17.461 24-6.818 7.11-12.275 15.435-17.46 24zM1461.722 231.393c-2.16-3.569-4.434-7.037-7.275-10 2.841-2.963 5.114-6.431 7.275-10 2.161 3.569 4.435 7.037 7.276 10-2.841 2.963-5.115 6.431-7.276 10zM1315.558 50.25c-5.186-8.565-10.642-16.89-17.46-24 6.818-7.11 12.274-15.435 17.46-24 5.186 8.565 10.643 16.89 17.461 24-6.818 7.11-12.275 15.435-17.46 24zM1315.558 248.676c-5.186-8.564-10.642-16.889-17.46-24 6.818-7.11 12.274-15.435 17.46-24 5.186 8.565 10.643 16.89 17.461 24-6.818 7.111-12.275 15.436-17.46 24zM1419.091 248.683c-5.186-8.565-10.642-16.889-17.46-24 6.818-7.11 12.274-15.435 17.46-24 5.186 8.565 10.643 16.89 17.461 24-6.818 7.111-12.275 15.435-17.46 24z"/><path d="M1273.158 16.389v-2.915h2.63V8.666h-13.157V5.273l14.237-21.88 2.326.012V5.274h4.028v3.392h-4.028l-.076 4.808h2.205v2.919h-8.165zm2.63-24.986-9.04 13.872h9.04zM1461.49 234.532v2.915h-2.631v4.808h13.158v3.393l-14.238 21.88-2.326-.011v-21.87h-4.028v-3.392h4.028l.076-4.808h-2.205v-2.919h8.165zm-2.631 24.986 9.04-13.872h-9.04zm0 0" style="opacity:1;fill:#c8102e;fill-opacity:1"/></g><g transform="translate(-360.409 123.645)"><rect style="opacity:1;vector-effect:none;fill:#006614;fill-opacity:1;stroke:none;stroke-width:1.74801;stroke-linecap:butt;stroke-linejoin:miter;stroke-miterlimit:4;stroke-dasharray:none;stroke-dashoffset:0;stroke-opacity:1" width="1659.913" height="794.398" x="-356.473" y="-1029.682" rx="144.482" ry="124.682"/><text y="-935.813" x="472.194" style="font-style:normal;font-variant:normal;font-weight:400;font-stretch:normal;font-size:42.6667px;line-height:125%;font-family:Carlito;-inkscape-font-specification:'Carlito, Normal';text-align:center;letter-spacing:0;word-spacing:0;writing-mode:lr-tb;text-anchor:middle;fill:#fff;fill-opacity:1;stroke:none;stroke-width:1.06667px;stroke-linecap:butt;stroke-linejoin:miter;stroke-opacity:1" xml:space="preserve"><tspan style="font-style:normal;font-variant:normal;font-weight:400;font-stretch:normal;font-size:48px;line-height:125%;font-family:Carlito;-inkscape-font-specification:'Carlito, Normal';text-align:center;writing-mode:lr-tb;text-anchor:middle;fill:#fff;fill-opacity:1;stroke-width:1.06667px" y="-935.813" x="472.194">Single Playing Card from:</tspan><tspan style="font-style:normal;font-variant:normal;font-weight:400;font-stretch:normal;font-size:48px;line-height:125%;font-family:Carlito;-inkscape-font-specification:'Carlito, Normal';text-align:center;writing-mode:lr-tb;text-anchor:middle;fill:#fff;fill-opacity:1;stroke-width:1.06667px" y="-875.813" x="472.194">Standard Edition - Color Set - Bordered </tspan><tspan style="font-style:normal;font-variant:normal;font-weight:400;font-stretch:normal;font-size:48px;line-height:125%;font-family:Carlito;-inkscape-font-specification:'Carlito, Normal';text-align:center;writing-mode:lr-tb;text-anchor:middle;fill:#faa;fill-opacity:1;stroke-width:1.06667px" y="-762.48" x="472.194">Copyright 2011, 2020 - Chris Aguilar - conjurenation@gmail.com</tspan><tspan style="font-style:normal;font-variant:normal;font-weight:400;font-stretch:normal;font-size:48px;line-height:125%;font-family:Carlito;-inkscape-font-specification:'Carlito, Normal';text-align:center;writing-mode:lr-tb;text-anchor:middle;fill:#fff;fill-opacity:1;stroke-width:1.06667px" y="-649.147" x="472.194">https://totalnonsense.com/open-source-vector-playing-cards/</tspan><tspan style="font-style:normal;font-variant:normal;font-weight:400;font-stretch:normal;font-size:48px;line-height:125%;font-family:Carlito;-inkscape-font-specification:'Carlito, Normal';text-align:center;writing-mode:lr-tb;text-anchor:middle;fill:#faa;fill-opacity:1;stroke-width:1.06667px" y="-535.813" x="472.194">Licensed under:</tspan><tspan style="font-style:normal;font-variant:normal;font-weight:400;font-stretch:normal;font-size:48px;line-height:125%;font-family:Carlito;-inkscape-font-specification:'Carlito, Normal';text-align:center;writing-mode:lr-tb;text-anchor:middle;fill:#faa;fill-opacity:1;stroke-width:1.06667px" y="-475.813" x="472.194">LGPL 3.0</tspan><tspan style="font-style:normal;font-variant:normal;font-weight:400;font-stretch:normal;font-size:48px;line-height:125%;font-family:Carlito;-inkscape-font-specification:'Carlito, Normal';text-align:center;writing-mode:lr-tb;text-anchor:middle;fill:#faa;fill-opacity:1;stroke-width:1.06667px" y="-415.813" x="472.194">https://www.gnu.org/licenses/lgpl-3.0.html</tspan><tspan style="font-style:normal;font-variant:normal;font-weight:400;font-stretch:normal;font-size:48px;line-height:125%;font-family:Carlito;-inkscape-font-specification:'Carlito, Normal';text-align:center;writing-mode:lr-tb;text-anchor:middle;fill:#fff;fill-opacity:1;stroke-width:1.06667px" y="-302.48" x="472.194">Each Card Measures (63mm x 88mm)</tspan></text></g></svg>