<svg xmlns="http://www.w3.org/2000/svg" width="238.111" height="332.599"><g style="display:inline" transform="translate(-277.796 -394.962) scale(1.06667)"><rect ry="10.664" rx="10.678" style="display:inline;fill:#fff;fill-opacity:1;stroke:none;stroke-width:1.00057;stroke-miterlimit:4;stroke-dasharray:none;stroke-opacity:1" width="223.228" height="311.811" x="260.433" y="370.276"/></g><path d="M2858.278 39.528c-2.16-3.568-4.434-7.037-7.275-10 2.841-2.962 5.115-6.43 7.275-10 2.161 3.57 4.435 7.038 7.276 10-2.841 2.963-5.115 6.432-7.276 10zM3004.442 50.25c-5.186-8.565-10.643-16.89-17.461-24 6.818-7.11 12.275-15.435 17.46-24 5.187 8.565 10.643 16.89 17.462 24-6.819 7.11-12.275 15.435-17.461 24zM3047.073 231.393c-2.16-3.569-4.434-7.037-7.275-10 2.84-2.963 5.114-6.431 7.275-10 2.16 3.569 4.434 7.037 7.275 10-2.84 2.963-5.114 6.431-7.275 10zM2900.909 50.25c-5.186-8.565-10.643-16.89-17.461-24 6.819-7.11 12.275-15.435 17.461-24 5.186 8.565 10.642 16.89 17.46 24-6.818 7.11-12.274 15.435-17.46 24zM3004.442 116.397c-5.186-8.564-10.643-16.889-17.461-24 6.818-7.11 12.275-15.435 17.46-24 5.187 8.565 10.643 16.89 17.462 24-6.819 7.111-12.275 15.436-17.461 24zM2900.909 116.397c-5.186-8.564-10.643-16.889-17.461-24 6.819-7.11 12.275-15.435 17.461-24 5.186 8.565 10.642 16.89 17.46 24-6.818 7.111-12.274 15.436-17.46 24zM2952.675 83.32c-5.186-8.565-10.642-16.889-17.46-24 6.818-7.11 12.274-15.435 17.46-24 5.187 8.565 10.643 16.89 17.461 24-6.818 7.111-12.274 15.435-17.46 24zM2900.909 248.676c-5.186-8.564-10.643-16.889-17.461-24 6.819-7.11 12.275-15.435 17.461-24 5.186 8.565 10.642 16.89 17.46 24-6.818 7.111-12.274 15.436-17.46 24zM3004.442 248.683c-5.186-8.564-10.643-16.889-17.461-24 6.818-7.11 12.275-15.435 17.46-24 5.187 8.565 10.643 16.89 17.462 24-6.819 7.111-12.275 15.436-17.461 24zM3004.442 182.53c-5.186-8.565-10.643-16.89-17.461-24 6.818-7.111 12.275-15.436 17.46-24 5.187 8.564 10.643 16.889 17.462 24-6.819 7.11-12.275 15.435-17.461 24zM2900.909 182.497c-5.186-8.565-10.643-16.889-17.461-24 6.819-7.11 12.275-15.435 17.461-24 5.186 8.565 10.642 16.89 17.46 24-6.818 7.111-12.274 15.435-17.46 24zM2952.675 215.601c-5.186-8.565-10.642-16.889-17.46-24 6.818-7.11 12.274-15.435 17.46-24 5.187 8.565 10.643 16.89 17.461 24-6.818 7.111-12.274 15.435-17.46 24z" style="display:inline;opacity:1;fill:#c8102e;fill-opacity:1" transform="translate(-3030.477 32.475) scale(1.06667)"/><g style="opacity:1;fill:#d40000;fill-opacity:1"><path style="fill:#c8102e;fill-opacity:1" d="M1038.583 555.13v-33h3.199v33zM1051.264 522.13c-3.08 0-5.555 2.812-5.555 6.305v20.39c0 3.493 2.476 6.304 5.554 6.304h1.798c3.08 0 5.56-2.811 5.56-6.305v-20.389c0-3.493-2.482-6.306-5.56-6.306zm.929 3.12c1.818 0 3.28 1.394 3.28 3.138v20.659c0 1.744-1.462 3.152-3.28 3.152-1.818 0-3.285-1.408-3.285-3.152v-20.659c0-1.743 1.467-3.139 3.285-3.139zm0 0" transform="matrix(1.06667 0 0 1.06665 -1100.145 -542.168)"/></g><g style="opacity:1;fill:#d40000;fill-opacity:1"><path style="fill:#c8102e;fill-opacity:1" d="M1038.583 555.13v-33h3.199v33zM1051.264 522.13c-3.08 0-5.555 2.812-5.555 6.305v20.39c0 3.493 2.476 6.304 5.554 6.304h1.798c3.08 0 5.56-2.811 5.56-6.305v-20.389c0-3.493-2.482-6.306-5.56-6.306zm.929 3.12c1.818 0 3.28 1.394 3.28 3.138v20.659c0 1.744-1.462 3.152-3.28 3.152-1.818 0-3.285-1.408-3.285-3.152v-20.659c0-1.743 1.467-3.139 3.285-3.139zm0 0" transform="matrix(-1.06667 0 0 -1.06665 1338.252 874.768)"/></g><g transform="translate(-381.61 151.914)"><rect style="opacity:1;vector-effect:none;fill:#006614;fill-opacity:1;stroke:none;stroke-width:1.74801;stroke-linecap:butt;stroke-linejoin:miter;stroke-miterlimit:4;stroke-dasharray:none;stroke-dashoffset:0;stroke-opacity:1" width="1659.913" height="794.398" x="-356.473" y="-1029.682" rx="144.482" ry="124.682"/><text y="-935.813" x="472.194" style="font-style:normal;font-variant:normal;font-weight:400;font-stretch:normal;font-size:42.6667px;line-height:125%;font-family:Carlito;-inkscape-font-specification:'Carlito, Normal';text-align:center;letter-spacing:0;word-spacing:0;writing-mode:lr-tb;text-anchor:middle;fill:#fff;fill-opacity:1;stroke:none;stroke-width:1.06667px;stroke-linecap:butt;stroke-linejoin:miter;stroke-opacity:1" xml:space="preserve"><tspan style="font-style:normal;font-variant:normal;font-weight:400;font-stretch:normal;font-size:48px;line-height:125%;font-family:Carlito;-inkscape-font-specification:'Carlito, Normal';text-align:center;writing-mode:lr-tb;text-anchor:middle;fill:#fff;fill-opacity:1;stroke-width:1.06667px" y="-935.813" x="472.194">Single Playing Card from:</tspan><tspan style="font-style:normal;font-variant:normal;font-weight:400;font-stretch:normal;font-size:48px;line-height:125%;font-family:Carlito;-inkscape-font-specification:'Carlito, Normal';text-align:center;writing-mode:lr-tb;text-anchor:middle;fill:#fff;fill-opacity:1;stroke-width:1.06667px" y="-875.813" x="472.194">Standard Edition - Color Set - Bordered </tspan><tspan style="font-style:normal;font-variant:normal;font-weight:400;font-stretch:normal;font-size:48px;line-height:125%;font-family:Carlito;-inkscape-font-specification:'Carlito, Normal';text-align:center;writing-mode:lr-tb;text-anchor:middle;fill:#faa;fill-opacity:1;stroke-width:1.06667px" y="-762.48" x="472.194">Copyright 2011, 2020 - Chris Aguilar - conjurenation@gmail.com</tspan><tspan style="font-style:normal;font-variant:normal;font-weight:400;font-stretch:normal;font-size:48px;line-height:125%;font-family:Carlito;-inkscape-font-specification:'Carlito, Normal';text-align:center;writing-mode:lr-tb;text-anchor:middle;fill:#fff;fill-opacity:1;stroke-width:1.06667px" y="-649.147" x="472.194">https://totalnonsense.com/open-source-vector-playing-cards/</tspan><tspan style="font-style:normal;font-variant:normal;font-weight:400;font-stretch:normal;font-size:48px;line-height:125%;font-family:Carlito;-inkscape-font-specification:'Carlito, Normal';text-align:center;writing-mode:lr-tb;text-anchor:middle;fill:#faa;fill-opacity:1;stroke-width:1.06667px" y="-535.813" x="472.194">Licensed under:</tspan><tspan style="font-style:normal;font-variant:normal;font-weight:400;font-stretch:normal;font-size:48px;line-height:125%;font-family:Carlito;-inkscape-font-specification:'Carlito, Normal';text-align:center;writing-mode:lr-tb;text-anchor:middle;fill:#faa;fill-opacity:1;stroke-width:1.06667px" y="-475.813" x="472.194">LGPL 3.0</tspan><tspan style="font-style:normal;font-variant:normal;font-weight:400;font-stretch:normal;font-size:48px;line-height:125%;font-family:Carlito;-inkscape-font-specification:'Carlito, Normal';text-align:center;writing-mode:lr-tb;text-anchor:middle;fill:#faa;fill-opacity:1;stroke-width:1.06667px" y="-415.813" x="472.194">https://www.gnu.org/licenses/lgpl-3.0.html</tspan><tspan style="font-style:normal;font-variant:normal;font-weight:400;font-stretch:normal;font-size:48px;line-height:125%;font-family:Carlito;-inkscape-font-specification:'Carlito, Normal';text-align:center;writing-mode:lr-tb;text-anchor:middle;fill:#fff;fill-opacity:1;stroke-width:1.06667px" y="-302.48" x="472.194">Each Card Measures (63mm x 88mm)</tspan></text></g></svg>