<svg xmlns="http://www.w3.org/2000/svg" width="238.111" height="332.599"><g style="display:inline"><g style="display:inline;opacity:1" transform="translate(-277.796 -394.962) scale(1.06667)"><rect ry="10.664" rx="10.678" style="display:inline;fill:#fff;fill-opacity:1;stroke:none;stroke-width:1.00057;stroke-miterlimit:4;stroke-dasharray:none;stroke-opacity:1" width="223.228" height="311.811" x="260.433" y="370.276"/></g><path transform="translate(120.125 224.106) scale(1.06667)" style="display:inline;opacity:1;fill:#c8102e;fill-opacity:1" d="M-52.766-63.26s-4.667-7.655-10.961-16.655c-4.211-6.024-7.578-12.546-7.89-18.164-.36-6.417 3.038-12.855 9.19-13.167 6.149-.312 8.645 4.948 9.66 9.285 1.017-4.337 3.512-9.597 9.66-9.285 6.153.312 9.551 6.75 9.192 13.167-.313 5.618-3.68 12.14-7.89 18.164-6.295 9-10.961 16.656-10.961 16.656zM-95.397-140.121s-2.225-3.19-5.226-6.94c-2.007-2.51-3.612-5.228-3.762-7.568-.17-2.674 1.45-5.357 4.383-5.487 2.93-.13 4.12 2.062 4.605 3.869.485-1.807 1.674-3.999 4.606-3.869 2.933.13 4.553 2.813 4.382 5.487-.15 2.34-1.754 5.058-3.762 7.568-3.001 3.75-5.226 6.94-5.226 6.94z"/><path transform="translate(120.125 224.106) scale(1.06667)" style="display:inline;opacity:1;fill:#c8102e;fill-opacity:1;stroke:none;stroke-opacity:1" d="M93.398 31.743s-2.225 3.19-5.226 6.94c-2.008 2.51-3.613 5.228-3.762 7.568-.171 2.674 1.449 5.357 4.382 5.487 2.931.13 4.121-2.062 4.606-3.869.484 1.807 1.674 3.999 4.605 3.869 2.933-.13 4.553-2.813 4.382-5.487-.149-2.34-1.754-5.058-3.762-7.567-3-3.75-5.225-6.94-5.225-6.94z"/><path transform="translate(120.125 224.106) scale(1.06667)" d="M-1-86.76s-4.666-7.655-10.961-16.655c-4.211-6.024-7.578-12.546-7.89-18.164-.36-6.417 3.039-12.855 9.19-13.167 6.15-.312 8.645 4.948 9.66 9.285 1.017-4.337 3.513-9.597 9.661-9.285 6.152.312 9.55 6.75 9.192 13.167-.313 5.618-3.68 12.14-7.891 18.164C3.666-94.415-1-86.76-1-86.76zM-52.766-129.4s-4.667-7.655-10.961-16.656c-4.211-6.023-7.578-12.545-7.89-18.163-.36-6.417 3.038-12.855 9.19-13.167 6.149-.312 8.645 4.948 9.66 9.284 1.017-4.336 3.512-9.596 9.66-9.284 6.153.312 9.551 6.75 9.192 13.167-.313 5.618-3.68 12.14-7.89 18.163-6.295 9-10.961 16.656-10.961 16.656zM50.766-63.26s-4.666-7.655-10.96-16.655c-4.212-6.024-7.578-12.546-7.891-18.164-.36-6.417 3.04-12.855 9.191-13.167 6.149-.312 8.644 4.948 9.66 9.285 1.016-4.337 3.512-9.597 9.66-9.285 6.153.312 9.551 6.75 9.192 13.167-.313 5.618-3.68 12.14-7.89 18.164-6.295 9-10.962 16.656-10.962 16.656zM50.766-129.4s-4.666-7.655-10.96-16.656c-4.212-6.023-7.578-12.545-7.891-18.163-.36-6.417 3.04-12.855 9.191-13.167 6.149-.312 8.644 4.948 9.66 9.284 1.016-4.336 3.512-9.596 9.66-9.284 6.153.312 9.551 6.75 9.192 13.167-.313 5.618-3.68 12.14-7.89 18.163-6.295 9-10.962 16.656-10.962 16.656zM-1-21.619s-4.666 7.656-10.96 16.657C-16.173 1.06-19.54 7.583-19.853 13.2c-.359 6.417 3.04 12.855 9.192 13.167 6.148.312 8.644-4.948 9.66-9.285 1.016 4.337 3.512 9.597 9.66 9.285 6.152-.312 9.55-6.75 9.192-13.167-.313-5.618-3.68-12.14-7.891-18.163C3.666-13.963-1-21.62-1-21.62ZM50.766-45.119s-4.666 7.656-10.96 16.657c-4.212 6.023-7.578 12.545-7.891 18.163-.36 6.417 3.04 12.855 9.191 13.167 6.149.312 8.644-4.948 9.66-9.285 1.016 4.337 3.512 9.597 9.66 9.285 6.153-.312 9.551-6.75 9.192-13.167-.313-5.618-3.68-12.14-7.89-18.163-6.295-9.001-10.962-16.657-10.962-16.657zM-52.766-45.119s-4.667 7.656-10.961 16.657c-4.211 6.023-7.578 12.545-7.89 18.163-.36 6.417 3.038 12.855 9.19 13.167 6.149.312 8.645-4.948 9.66-9.285 1.017 4.337 3.512 9.597 9.66 9.285 6.153-.312 9.551-6.75 9.192-13.167-.313-5.618-3.68-12.14-7.89-18.163C-48.1-37.463-52.766-45.12-52.766-45.12z" style="display:inline;opacity:1;fill:#c8102e;fill-opacity:1"/><path transform="translate(120.125 224.106) scale(1.06667)" style="display:inline;opacity:1;fill:#c8102e;fill-opacity:1;stroke:none;stroke-opacity:1" d="M50.766 21.022s-4.666 7.655-10.96 16.656c-4.212 6.023-7.578 12.545-7.891 18.163-.36 6.417 3.04 12.855 9.191 13.167 6.149.312 8.644-4.948 9.66-9.284 1.016 4.336 3.512 9.596 9.66 9.284 6.153-.312 9.551-6.75 9.192-13.167-.313-5.618-3.68-12.14-7.89-18.163-6.295-9-10.962-16.656-10.962-16.656z"/><path transform="translate(120.125 224.106) scale(1.06667)" d="M-52.766 21.022s-4.667 7.655-10.961 16.656c-4.211 6.023-7.578 12.545-7.89 18.163-.36 6.417 3.038 12.855 9.19 13.167 6.149.312 8.645-4.948 9.66-9.284 1.017 4.336 3.512 9.596 9.66 9.284 6.153-.312 9.551-6.75 9.192-13.167-.313-5.618-3.68-12.14-7.89-18.163-6.295-9-10.961-16.656-10.961-16.656z" style="display:inline;opacity:1;fill:#c8102e;fill-opacity:1"/><g style="opacity:1;fill:#d40000;fill-opacity:1;stroke-width:1.00002;stroke-miterlimit:4;stroke-dasharray:none"><g style="fill:#d40000;fill-opacity:1;stroke-width:1.00002;stroke-miterlimit:4;stroke-dasharray:none"><path d="M1038.583 555.13v-33h3.199v33zM1051.264 522.13c-3.08 0-5.555 2.812-5.555 6.305v20.39c0 3.493 2.476 6.304 5.554 6.304h1.798c3.08 0 5.56-2.811 5.56-6.305v-20.389c0-3.493-2.482-6.306-5.56-6.306zm.929 3.12c1.818 0 3.28 1.394 3.28 3.138v20.659c0 1.744-1.462 3.152-3.28 3.152-1.818 0-3.285-1.408-3.285-3.152v-20.659c0-1.743 1.467-3.139 3.285-3.139zm0 0" style="fill:#c8102e;fill-opacity:1;stroke-width:1.00002;stroke-miterlimit:4;stroke-dasharray:none" transform="matrix(1.06667 0 0 1.06665 -1100.145 -542.162)"/></g></g><g style="opacity:1;fill:#d40000;fill-opacity:1"><g style="fill:#d40000;fill-opacity:1"><path style="fill:#c8102e;fill-opacity:1" d="M1038.583 555.13v-33h3.199v33zM1051.264 522.13c-3.08 0-5.555 2.812-5.555 6.305v20.39c0 3.493 2.476 6.304 5.554 6.304h1.798c3.08 0 5.56-2.811 5.56-6.305v-20.389c0-3.493-2.482-6.306-5.56-6.306zm.929 3.12c1.818 0 3.28 1.394 3.28 3.138v20.659c0 1.744-1.462 3.152-3.28 3.152-1.818 0-3.285-1.408-3.285-3.152v-20.659c0-1.743 1.467-3.139 3.285-3.139zm0 0" transform="matrix(-1.06667 0 0 -1.06665 1338.26 874.772)"/></g></g></g><g transform="translate(-339.207 158.981)"><rect style="opacity:1;vector-effect:none;fill:#006614;fill-opacity:1;stroke:none;stroke-width:1.74801;stroke-linecap:butt;stroke-linejoin:miter;stroke-miterlimit:4;stroke-dasharray:none;stroke-dashoffset:0;stroke-opacity:1" width="1659.913" height="794.398" x="-356.473" y="-1029.682" rx="144.482" ry="124.682"/><text y="-935.813" x="472.194" style="font-style:normal;font-variant:normal;font-weight:400;font-stretch:normal;font-size:42.6667px;line-height:125%;font-family:Carlito;-inkscape-font-specification:'Carlito, Normal';text-align:center;letter-spacing:0;word-spacing:0;writing-mode:lr-tb;text-anchor:middle;fill:#fff;fill-opacity:1;stroke:none;stroke-width:1.06667px;stroke-linecap:butt;stroke-linejoin:miter;stroke-opacity:1" xml:space="preserve"><tspan style="font-style:normal;font-variant:normal;font-weight:400;font-stretch:normal;font-size:48px;line-height:125%;font-family:Carlito;-inkscape-font-specification:'Carlito, Normal';text-align:center;writing-mode:lr-tb;text-anchor:middle;fill:#fff;fill-opacity:1;stroke-width:1.06667px" y="-935.813" x="472.194">Single Playing Card from:</tspan><tspan style="font-style:normal;font-variant:normal;font-weight:400;font-stretch:normal;font-size:48px;line-height:125%;font-family:Carlito;-inkscape-font-specification:'Carlito, Normal';text-align:center;writing-mode:lr-tb;text-anchor:middle;fill:#fff;fill-opacity:1;stroke-width:1.06667px" y="-875.813" x="472.194">Standard Edition - Color Set - Bordered </tspan><tspan style="font-style:normal;font-variant:normal;font-weight:400;font-stretch:normal;font-size:48px;line-height:125%;font-family:Carlito;-inkscape-font-specification:'Carlito, Normal';text-align:center;writing-mode:lr-tb;text-anchor:middle;fill:#faa;fill-opacity:1;stroke-width:1.06667px" y="-762.48" x="472.194">Copyright 2011, 2020 - Chris Aguilar - conjurenation@gmail.com</tspan><tspan style="font-style:normal;font-variant:normal;font-weight:400;font-stretch:normal;font-size:48px;line-height:125%;font-family:Carlito;-inkscape-font-specification:'Carlito, Normal';text-align:center;writing-mode:lr-tb;text-anchor:middle;fill:#fff;fill-opacity:1;stroke-width:1.06667px" y="-649.147" x="472.194">https://totalnonsense.com/open-source-vector-playing-cards/</tspan><tspan style="font-style:normal;font-variant:normal;font-weight:400;font-stretch:normal;font-size:48px;line-height:125%;font-family:Carlito;-inkscape-font-specification:'Carlito, Normal';text-align:center;writing-mode:lr-tb;text-anchor:middle;fill:#faa;fill-opacity:1;stroke-width:1.06667px" y="-535.813" x="472.194">Licensed under:</tspan><tspan style="font-style:normal;font-variant:normal;font-weight:400;font-stretch:normal;font-size:48px;line-height:125%;font-family:Carlito;-inkscape-font-specification:'Carlito, Normal';text-align:center;writing-mode:lr-tb;text-anchor:middle;fill:#faa;fill-opacity:1;stroke-width:1.06667px" y="-475.813" x="472.194">LGPL 3.0</tspan><tspan style="font-style:normal;font-variant:normal;font-weight:400;font-stretch:normal;font-size:48px;line-height:125%;font-family:Carlito;-inkscape-font-specification:'Carlito, Normal';text-align:center;writing-mode:lr-tb;text-anchor:middle;fill:#faa;fill-opacity:1;stroke-width:1.06667px" y="-415.813" x="472.194">https://www.gnu.org/licenses/lgpl-3.0.html</tspan><tspan style="font-style:normal;font-variant:normal;font-weight:400;font-stretch:normal;font-size:48px;line-height:125%;font-family:Carlito;-inkscape-font-specification:'Carlito, Normal';text-align:center;writing-mode:lr-tb;text-anchor:middle;fill:#fff;fill-opacity:1;stroke-width:1.06667px" y="-302.48" x="472.194">Each Card Measures (63mm x 88mm)</tspan></text></g></svg>